<?xml version="1.0" encoding="UTF-8" standalone="no"?>
<!-- Created with Inkscape (http://www.inkscape.org/) -->

<svg
   version="1.1"
   id="svg1"
   width="1024"
   height="1024"
   viewBox="0 0 1024 1024"
   sodipodi:docname="ty_bolt.svg"
   xml:space="preserve"
   inkscape:version="1.4.2 (f4327f4, 2025-05-13)"
   xmlns:inkscape="http://www.inkscape.org/namespaces/inkscape"
   xmlns:sodipodi="http://sodipodi.sourceforge.net/DTD/sodipodi-0.dtd"
   xmlns="http://www.w3.org/2000/svg"
   xmlns:svg="http://www.w3.org/2000/svg"><defs
     id="defs1" /><sodipodi:namedview
     id="namedview1"
     pagecolor="#ffffff"
     bordercolor="#000000"
     borderopacity="0.25"
     inkscape:showpageshadow="2"
     inkscape:pageopacity="0.0"
     inkscape:pagecheckerboard="0"
     inkscape:deskcolor="#d1d1d1"
     inkscape:zoom="0.22155762"
     inkscape:cx="-1218.6446"
     inkscape:cy="178.2832"
     inkscape:window-width="3840"
     inkscape:window-height="2054"
     inkscape:window-x="-11"
     inkscape:window-y="-11"
     inkscape:window-maximized="1"
     inkscape:current-layer="g1" /><g
     inkscape:groupmode="layer"
     inkscape:label="Image"
     id="g1"><g
       id="g3"
       transform="matrix(0.92214342,0,0,0.92214342,29.303694,29.17428)"
       style="stroke-width:1.08443"><path
         style="opacity:1;fill:#3b3b3b;fill-opacity:1;stroke:none;stroke-width:5.42214;stroke-linecap:round;stroke-linejoin:round;stroke-opacity:1;paint-order:markers fill stroke"
         d="M 179.6412,718.27894 271.82557,227.17012 77.394411,226.84552 102.06355,101.22814 H 529.9207 c 61.38954,0 161.00193,93.13642 147.53738,173.86937 C 640.78959,238.42899 596.9689,225.87175 534.42109,225.87175 H 421.46278 l -92.18437,493.38096 z"
         id="path2"
         sodipodi:nodetypes="ccccsccccc" /><path
         style="opacity:1;fill:#4b90c9;fill-opacity:1;stroke:none;stroke-width:5.42214;stroke-linecap:round;stroke-linejoin:round;stroke-opacity:1;paint-order:markers fill stroke"
         d="m 831.29614,225.68803 138.21017,0.97377 -189.01749,365.50109 124.85188,-2e-5 -278.17243,407.6307 125.34202,-282.45251 -175.38425,-2e-5 76.43807,-147.52535 -118.20973,-314.18588 c 62.9469,0.33022 106.19878,18.87181 142.02849,58.28967 0.16669,0.40314 37.7003,86.45766 52.30882,108.31537 z"
         id="path3"
         sodipodi:nodetypes="cccccccccccc" /></g></g></svg>
